<svg xmlns="http://www.w3.org/2000/svg" xmlns:xlink="http://www.w3.org/1999/xlink" width="340" height="340" viewBox="0 0 340 340">
  <defs>
    <linearGradient id="linear-gradient" x1="0.259" y1="0.768" x2="0.933" y2="0.061" gradientUnits="objectBoundingBox">
      <stop offset="0.006" stop-color="#bdbdbd"/>
      <stop offset="0.094" stop-color="#c4c4c4"/>
      <stop offset="0.421" stop-color="#dbdbdb"/>
      <stop offset="0.731" stop-color="#e9e9e9"/>
      <stop offset="1" stop-color="#eee"/>
    </linearGradient>
    <clipPath id="clip-airplanecolor">
      <rect width="340" height="340"/>
    </clipPath>
  </defs>
  <g id="airplanecolor" clip-path="url(#clip-airplanecolor)">
    <g id="_42586airplane_98957" data-name="42586airplane_98957" transform="translate(69.17 64.18)">
      <path id="Caminho_16" data-name="Caminho 16" d="M41.681,46.364,40.65,45.333a4.012,4.012,0,0,1,0-5.669L54.014,26.3a4.012,4.012,0,0,1,5.669,0l1.031,1.031a4.012,4.012,0,0,1,0,5.669L47.349,46.364A4.012,4.012,0,0,1,41.681,46.364Z" transform="translate(23.434 9.552)" fill="#757575"/>
      <path id="Caminho_17" data-name="Caminho 17" d="M59.8,48.314,58.77,47.283a4.012,4.012,0,0,1,0-5.669L72.134,28.25a4.012,4.012,0,0,1,5.669,0l1.031,1.031a4.012,4.012,0,0,1,0,5.669L65.469,48.314A4.012,4.012,0,0,1,59.8,48.314Z" transform="translate(36.441 10.952)" fill="#757575"/>
      <path id="Caminho_18" data-name="Caminho 18" d="M91.01,95.893l1.031,1.031a4.012,4.012,0,0,0,5.669,0l13.364-13.364a4.012,4.012,0,0,0,0-5.669l-1.031-1.031a4.012,4.012,0,0,0-5.669,0L91.01,90.224A4.012,4.012,0,0,0,91.01,95.893Z" transform="translate(59.582 45.844)" fill="#757575"/>
      <path id="Caminho_19" data-name="Caminho 19" d="M89.06,77.773,90.091,78.8a4.012,4.012,0,0,0,5.669,0l13.364-13.364a4.012,4.012,0,0,0,0-5.669l-1.031-1.031a4.012,4.012,0,0,0-5.669,0L89.06,72.1A4.012,4.012,0,0,0,89.06,77.773Z" transform="translate(58.183 32.837)" fill="#757575"/>
      <path id="Caminho_20" data-name="Caminho 20" d="M132.83,40.584S34.126,29.35,22.273,29.35c-9.826,0-15.443,8.263-15.443,8.263s56.43,13.5,74.535,17.814,27.571,9.018,27.571,9.018Z" transform="translate(0 12.583)" fill="#039be5"/>
      <g id="Grupo_7" data-name="Grupo 7" transform="translate(6.83 41.933)" opacity="0.2">
        <path id="Caminho_21" data-name="Caminho 21" d="M22.273,33.4c9.551,0,81.6,7.953,106.349,10.719L112.165,60.837A226.3,226.3,0,0,0,82.31,51.475c-14.052-3.35-51.173-12.231-67.1-16.044a13.67,13.67,0,0,1,7.06-2.027m0-4.054c-9.826,0-15.443,8.263-15.443,8.263s56.43,13.5,74.535,17.814a214.941,214.941,0,0,1,31.779,10.2l24.238-24.6C137.4,41.014,34.126,29.35,22.273,29.35Z" transform="translate(-6.83 -29.35)" fill="#424242"/>
      </g>
      <path id="Caminho_22" data-name="Caminho 22" d="M101.87,47.6S113.1,146.3,113.1,158.157c0,9.826-8.263,15.443-8.263,15.443s-13.5-56.43-17.814-74.535S78.01,71.495,78.01,71.495Z" transform="translate(51.093 25.683)" fill="#039be5"/>
      <g id="Grupo_9" data-name="Grupo 9" transform="translate(49.796 142.539)">
        <path id="Caminho_23" data-name="Caminho 23" d="M57.188,129.647l-4.174,5.068a3.271,3.271,0,0,1-5.411-.464L32.349,108.312a3.7,3.7,0,0,1,.447-4.329l13.914-15a3.328,3.328,0,0,1,5.737,1.907l5.514,35.868A3.673,3.673,0,0,1,57.188,129.647Z" transform="translate(-31.837 -87.917)" fill="#039be5"/>
        <g id="Grupo_8" data-name="Grupo 8" transform="translate(0 0.005)" opacity="0.2">
          <path id="Caminho_24" data-name="Caminho 24" d="M48.638,92.884l5.291,34.339-3.35,4.071L36.013,106.507,48.638,92.884M49.1,87.92a3.258,3.258,0,0,0-2.388,1.065l-13.914,15a3.651,3.651,0,0,0-.447,4.329l15.254,25.939a3.336,3.336,0,0,0,2.869,1.683,3.258,3.258,0,0,0,2.542-1.22l4.174-5.068a3.626,3.626,0,0,0,.773-2.886L52.452,90.892A3.422,3.422,0,0,0,49.1,87.92Z" transform="translate(-31.842 -87.92)" fill="#424242"/>
        </g>
      </g>
      <g id="Grupo_11" data-name="Grupo 11" transform="translate(16.722 130.863)">
        <path id="Caminho_25" data-name="Caminho 25" d="M18.878,81.943l-5.067,4.174a3.271,3.271,0,0,0,.464,5.411l25.939,15.254a3.7,3.7,0,0,0,4.329-.447l15-13.914a3.328,3.328,0,0,0-1.907-5.737L21.764,81.17A3.609,3.609,0,0,0,18.878,81.943Z" transform="translate(-12.588 -81.119)" fill="#039be5"/>
        <g id="Grupo_10" data-name="Grupo 10" opacity="0.2">
          <path id="Caminho_26" data-name="Caminho 26" d="M21.3,85.208,55.639,90.5,42.017,103.142,17.246,88.558l4.054-3.35m-.1-4.088a3.679,3.679,0,0,0-2.319.825l-5.067,4.174a3.271,3.271,0,0,0,.464,5.411l25.939,15.254a3.583,3.583,0,0,0,1.855.5,3.645,3.645,0,0,0,2.474-.962l15-13.914a3.328,3.328,0,0,0-1.907-5.737L21.764,81.154c-.189-.017-.378-.034-.567-.034Z" transform="translate(-12.588 -81.12)" fill="#424242"/>
        </g>
      </g>
      <g id="Grupo_12" data-name="Grupo 12" transform="translate(126.801 65.45)" opacity="0.2">
        <path id="Caminho_27" data-name="Caminho 27" d="M98.915,52.041C101.767,77.533,110,151.88,110,161.43a13.67,13.67,0,0,1-2.027,7.06c-3.813-15.924-12.695-53.063-16.044-67.1A204.564,204.564,0,0,0,81.48,69.958L98.915,52.041m3.075-9L76.67,69.082a200.274,200.274,0,0,1,11.32,33.257C92.3,120.444,105.8,176.873,105.8,176.873s8.263-5.634,8.263-15.443c0-11.853-12.076-118.39-12.076-118.39Z" transform="translate(-76.67 -43.04)" fill="#424242"/>
      </g>
      <path id="Caminho_28" data-name="Caminho 28" d="M173.083,15.579c-6.1-6.1-19.325-4.964-29.117,4.827C134.055,30.318,43.819,124.9,43.819,124.9S28.41,141.133,32.189,156.473c15.34,3.8,31.573-11.629,31.573-11.629S158.482,54.47,168.256,44.7C178.047,34.9,179.181,21.695,173.083,15.579Z" transform="translate(17.775 0.003)" fill="url(#linear-gradient)"/>
      <path id="Caminho_29" data-name="Caminho 29" d="M117.933,35.344c3.058-3.4,4.4-9.448-1.391-15.237s-11.853-4.449-15.237-1.391c-.5.447-1.769,1.391-1.443,2.182.292.739,1.735.842,2.371.91a14.012,14.012,0,0,1,8.452,4.157,14.153,14.153,0,0,1,4.157,8.452c.069.636.172,2.079.91,2.371C116.542,37.113,117.487,35.842,117.933,35.344Z" transform="translate(66.74 3.068)" fill="#4fc3f7"/>
      <g id="Grupo_13" data-name="Grupo 13" transform="translate(49.384 11.82)" opacity="0.2">
        <path id="Caminho_30" data-name="Caminho 30" d="M162.855,15.256a10.935,10.935,0,0,1,7.8,2.748c4.587,4.587,3.745,15.683-4.827,24.255-9.637,9.637-103.48,99.2-104.425,100.1-.12.12-12.076,11.286-24.169,11.286a16.951,16.951,0,0,1-2.1-.12c-1.46-12.712,11.028-26.11,11.166-26.248.91-.945,90.322-94.668,100.1-104.425,4.741-4.758,10.891-7.593,16.456-7.593m0-3.436c-6.029,0-13.072,2.766-18.879,8.589C134.065,30.321,43.829,124.9,43.829,124.9S28.42,141.136,32.2,156.476a21.139,21.139,0,0,0,5.05.6c13.656,0,26.523-12.231,26.523-12.231S158.492,54.473,168.266,44.7c9.791-9.791,10.942-23,4.827-29.117a14.289,14.289,0,0,0-10.238-3.762Z" transform="translate(-31.603 -11.82)" fill="#424242"/>
      </g>
      <ellipse id="Elipse_1" data-name="Elipse 1" cx="26.66" cy="4.569" rx="26.66" ry="4.569" transform="translate(39.066 161.273) rotate(-45)" fill="#616161"/>
    </g>
  </g>
</svg>
