<svg xmlns="http://www.w3.org/2000/svg" xmlns:xlink="http://www.w3.org/1999/xlink" width="340" height="340" viewBox="0 0 340 340">
  <defs>
    <clipPath id="clip-airplane">
      <rect width="340" height="340"/>
    </clipPath>
  </defs>
  <g id="airplane" clip-path="url(#clip-airplane)">
    <g id="airplane-2" data-name="airplane" transform="translate(12.4 68.999)">
      <path id="Caminho_12" data-name="Caminho 12" d="M52.952,156.765s12.469,5.483,18.012,5.483a31.784,31.784,0,0,0,13.271-2.887L286.349,65.8a26.381,26.381,0,0,0,14.169-15,22.609,22.609,0,0,0-2-19.4c-7.147-12.037-25.366-17.081-39.024-10.722L190.233,52.717,102.592,4.739a6.022,6.022,0,0,0-7.3,1.17L71.074,33.845A4.5,4.5,0,0,0,72.1,40.68l58.695,39.584-67.6,31.287L28.76,94.007A6.062,6.062,0,0,0,21.6,95.275L2.827,116.864a4.473,4.473,0,0,0-1.092,3.606A4.786,4.786,0,0,0,3.85,123.7Zm-25.518-52.17L60.32,121.347a6.407,6.407,0,0,0,5.35.1l77.951-36.1a4.928,4.928,0,0,0,2.931-3.9,4.64,4.64,0,0,0-2.143-4.289l-61.2-41.266L101.03,15.338,187.1,62.476a6.181,6.181,0,0,0,5.474.183l72.062-33.334c8.543-3.947,19.671-.841,24.094,6.628a14,14,0,0,1,1.23,11.964,16.267,16.267,0,0,1-8.75,9.259L79.078,150.722a19.922,19.922,0,0,1-18.316-1.011,5.963,5.963,0,0,0-1.811-.694L14.978,118.911Z" transform="translate(12.163)" fill="#fff"/>
      <path id="Caminho_13" data-name="Caminho 13" d="M6.1,27.915H308.5c3.038,0,5.5-2.193,5.5-4.873s-2.474-4.873-5.5-4.873H6.1c-3.038,0-5.5,2.193-5.5,4.873S3.06,27.915,6.1,27.915Z" transform="translate(0 158.432)" fill="#fff"/>
      <path id="Caminho_14" data-name="Caminho 14" d="M308.5,19.2H6.1C3.06,19.2.6,21.391.6,24.071s2.474,4.873,5.5,4.873H308.5c3.038,0,5.5-2.193,5.5-4.873S311.534,19.2,308.5,19.2Z" transform="translate(0 169.951)" fill="#fff"/>
    </g>
  </g>
</svg>
