<svg xmlns="http://www.w3.org/2000/svg" xmlns:xlink="http://www.w3.org/1999/xlink" width="340" height="340" viewBox="0 0 340 340">
  <defs>
    <clipPath id="clip-users">
      <rect width="340" height="340"/>
    </clipPath>
  </defs>
  <g id="users" clip-path="url(#clip-users)">
    <g id="group" transform="translate(13 13.836)">
      <path id="Caminho_15" data-name="Caminho 15" d="M284.719,127.742a44.928,44.928,0,0,0,7.622-25.075c0-24.362-17.4-43.5-40.023-43.5S212.3,78.3,212.3,102.667a45.016,45.016,0,0,0,7.622,25.075,42.244,42.244,0,0,0-17.227,11.311,59.944,59.944,0,0,0,.9-10.267c0-29.582-20.882-52.2-46.983-52.2s-46.983,22.621-46.983,52.2a59.953,59.953,0,0,0,.9,10.267,42.66,42.66,0,0,0-17.227-11.311,44.928,44.928,0,0,0,7.622-25.075c0-24.362-17.4-43.5-40.023-43.5S20.883,78.3,20.883,102.667a45.016,45.016,0,0,0,7.622,25.075C12.164,133.45,0,149.076,0,167.052v29.582c0,5.22,3.48,8.7,8.7,8.7s8.7-3.48,8.7-8.7V167.052c0-13.921,10.441-24.362,24.362-24.362h3.48v-.244a34.793,34.793,0,0,0,31.322,0v.244h3.48c13.921,0,24.362,10.441,24.362,24.362,0,.348.139.609.157.922a50.323,50.323,0,0,0-21.038,40.84v36.543c0,5.22,3.48,8.7,8.7,8.7s8.7-3.48,8.7-8.7V208.814c0-17.4,15.661-33.062,33.062-33.062h2.193a42.585,42.585,0,0,0,40.858,0h2.193c17.4,0,33.062,15.661,33.062,33.062v36.543c0,5.22,3.48,8.7,8.7,8.7s8.7-3.48,8.7-8.7V208.814a50.348,50.348,0,0,0-21.038-40.84,8.5,8.5,0,0,0,.157-.922c0-13.921,10.441-24.362,24.362-24.362h3.48v-.244a34.793,34.793,0,0,0,31.322,0v.244h3.48c13.921,0,24.362,10.441,24.362,24.362v29.582c0,5.22,3.48,8.7,8.7,8.7s8.7-3.48,8.7-8.7V167.052c0-17.993-12.185-33.6-28.507-39.31ZM38.283,102.667c0-13.921,10.441-26.1,22.621-26.1s22.621,12.181,22.621,26.1-10.441,26.1-22.621,26.1-22.621-12.181-22.621-26.1Zm88.746,26.1c0-19.141,13.921-34.8,29.582-34.8s29.582,15.661,29.582,34.8-12.181,34.8-29.582,34.8S127.029,147.91,127.029,128.769Zm102.667-26.1c0-13.921,10.441-26.1,22.621-26.1s22.621,12.181,22.621,26.1-10.441,26.1-22.621,26.1S229.7,116.588,229.7,102.667Z" fill="#fff"/>
    </g>
  </g>
</svg>
